<svg xmlns="http://www.w3.org/2000/svg" width="17.755" height="20" viewBox="0 0 17.755 20">
  <g id="file-svgrepo-com_1_" data-name="file-svgrepo-com (1)" transform="translate(-26.374)">
    <path id="Path_134" data-name="Path 134" d="M40.606,16.355a.318.318,0,0,0,.119-.248V1.6a.319.319,0,0,0-.319-.319H31.173a1.808,1.808,0,0,0-3.457,0H26.693a.319.319,0,0,0-.319.319V19.681a.319.319,0,0,0,.319.319H36.829a.32.32,0,0,0,.251-.119Zm-3.455,2.553V16.426h2.482ZM29.444.638a1.171,1.171,0,0,1,1.042.638H28.4A1.177,1.177,0,0,1,29.444.638ZM27.012,1.915h3.6V4.149a.532.532,0,0,1-1.064,0V2.872a.319.319,0,1,0-.638,0V4.149a1.17,1.17,0,1,0,2.34,0V1.915h8.834V15.787H36.832a.319.319,0,0,0-.319.319v3.255h-9.5Z" fill="#0059a7"/>
    <path id="Path_135" data-name="Path 135" d="M95.3,331.138a.319.319,0,0,0,0-.638H86.693a.319.319,0,0,0,0,.638Z" transform="translate(-57.447 -316.436)" fill="#0059a7"/>
    <path id="Path_136" data-name="Path 136" d="M86.693,286.138H95.3a.319.319,0,0,0,0-.638H86.693a.319.319,0,0,0,0,.638Z" transform="translate(-57.447 -273.351)" fill="#0059a7"/>
    <path id="Path_137" data-name="Path 137" d="M86.693,241.138H95.3a.319.319,0,0,0,0-.638H86.693a.319.319,0,0,0,0,.638Z" transform="translate(-57.447 -230.266)" fill="#0059a7"/>
    <path id="Path_138" data-name="Path 138" d="M86.693,196.138H95.3a.319.319,0,1,0,0-.638H86.693a.319.319,0,1,0,0,.638Z" transform="translate(-57.447 -187.181)" fill="#0059a7"/>
    <path id="Path_139" data-name="Path 139" d="M86.693,151.138H95.3a.319.319,0,0,0,0-.638H86.693a.319.319,0,0,0,0,.638Z" transform="translate(-57.447 -144.096)" fill="#0059a7"/>
    <path id="Path_140" data-name="Path 140" d="M305.1,30h-.426a.319.319,0,1,0,0,.638h.106V48.085h-3.407a.319.319,0,1,0,0,.638H305.1a.319.319,0,0,0,.319-.319V30.319A.319.319,0,0,0,305.1,30Z" transform="translate(-262.991 -28.723)" fill="#0059a7"/>
    <path id="Path_141" data-name="Path 141" d="M419.371,30h-.426a.319.319,0,1,0,0,.638h.106V48.085h-.106a.319.319,0,1,0,0,.638h.426a.319.319,0,0,0,.319-.319V30.319A.319.319,0,0,0,419.371,30Z" transform="translate(-375.56 -28.723)" fill="#0059a7"/>
  </g>
</svg>
