<svg xmlns="http://www.w3.org/2000/svg" width="16" height="20" viewBox="0 0 16 20">
  <g id="voice-svgrepo-com" transform="translate(-4 -2)">
    <path id="Path_132" data-name="Path 132" d="M12,14.784a3.687,3.687,0,0,0,3.692-3.3c.1-1.237.205-2.268.205-3.093A17.9,17.9,0,0,0,15.692,5.3,3.687,3.687,0,0,0,12,2a3.484,3.484,0,0,0-2.462.928A3.822,3.822,0,0,0,8.308,5.2C8.205,6.433,8.1,7.464,8.1,8.289a17.9,17.9,0,0,0,.205,3.093A3.7,3.7,0,0,0,12,14.784Z" fill="#0059a7"/>
    <path id="Path_133" data-name="Path 133" d="M19.18,7.98a.811.811,0,0,0-.821.825c0,.825-.1,1.856-.205,3.093A6.168,6.168,0,0,1,11.9,17.361,6.068,6.068,0,0,1,5.744,11.9c-.1-1.237-.205-2.268-.205-3.093a.811.811,0,0,0-.821-.825A.729.729,0,0,0,4,8.8c0,.928.1,1.959.205,3.2a7.583,7.583,0,0,0,6.974,6.8v2.371A.811.811,0,0,0,12,22a.757.757,0,0,0,.821-.825V18.8A7.583,7.583,0,0,0,19.795,12c.1-1.237.205-2.371.205-3.2A.885.885,0,0,0,19.18,7.98Z" fill="#0059a7"/>
  </g>
</svg>
