<svg xmlns="http://www.w3.org/2000/svg" width="20.456" height="20.428" viewBox="0 0 20.456 20.428">
  <path id="comment-message-svgrepo-com" d="M12.214,2A10.213,10.213,0,0,0,2,12.213a10.1,10.1,0,0,0,2.308,6.465L2.266,20.721a1,1,0,0,0,.756,1.706h9.192A10.213,10.213,0,1,0,12.214,2Zm0,18.384H5.483l.95-.95a1.021,1.021,0,0,0,0-1.44,8.171,8.171,0,1,1,5.781,2.39Zm5.107-9.192H7.107a1.021,1.021,0,1,0,0,2.043H17.321a1.021,1.021,0,1,0,0-2.043Zm-2.043,4.085H9.15a1.021,1.021,0,1,0,0,2.043h6.128a1.021,1.021,0,1,0,0-2.043ZM9.15,9.149h6.128a1.021,1.021,0,1,0,0-2.043H9.15a1.021,1.021,0,1,0,0,2.043Z" transform="translate(-1.972 -2)" fill="#70bcff"/>
</svg>
