<svg id="discount-svgrepo-com_1_" data-name="discount-svgrepo-com (1)" xmlns="http://www.w3.org/2000/svg" width="19.588" height="19.588" viewBox="0 0 19.588 19.588">
  <path id="Path_28" data-name="Path 28" d="M103.535,163.071v-1.262a1.27,1.27,0,0,0-2.535,0v1.263a1.128,1.128,0,0,0,1.267,1.185v0h0a1.362,1.362,0,0,0,.883-.268A1.118,1.118,0,0,0,103.535,163.071Zm-1.267.336c-.307,0-.369-.128-.369-.336v-1.262c0-.207.062-.336.369-.336s.377.134.377.336v1.262C102.645,163.272,102.58,163.406,102.267,163.406Z" transform="translate(-95.005 -151.09)"/>
  <path id="Path_29" data-name="Path 29" d="M135.323,155.763a.473.473,0,0,0-.47-.462.406.406,0,0,0-.38.234l-3.164,6.2a.446.446,0,0,0,.4.65h0a.451.451,0,0,0,.41-.254l3.15-6.158A.47.47,0,0,0,135.323,155.763Z" transform="translate(-123.469 -146.083)"/>
  <path id="Path_30" data-name="Path 30" d="M188.449,210.433a1.572,1.572,0,0,0-1.767,0,1.118,1.118,0,0,0-.384.912v1.263a1.27,1.27,0,0,0,2.535,0v-1.263A1.118,1.118,0,0,0,188.449,210.433Zm-.884,2.511c-.307,0-.369-.128-.369-.335v-1.263a.337.337,0,0,1,.082-.257.446.446,0,0,1,.286-.078h0c.313,0,.377.134.377.336v1.263a.33.33,0,0,1-.085.256A.46.46,0,0,1,187.565,212.944Z" transform="translate(-175.24 -197.686)"/>
  <path id="Path_31" data-name="Path 31" d="M19.485,6.41,16.342.474A.89.89,0,0,0,15.555,0H4.033a.89.89,0,0,0-.787.474L.1,6.409a.891.891,0,0,0-.1.417V18.7a.89.89,0,0,0,.89.89H18.7a.89.89,0,0,0,.89-.89V6.826A.891.891,0,0,0,19.485,6.41ZM4.569,1.782h10.45l2.2,4.155H2.369ZM1.781,17.807V7.717H17.807V17.807Z" transform="translate(0 0)"/>
</svg>
