<svg id="Group_65" data-name="Group 65" xmlns="http://www.w3.org/2000/svg" width="23.488" height="23.488" viewBox="0 0 23.488 23.488">
  <g id="facebook" transform="translate(0 0)">
    <path id="Path_1971" data-name="Path 1971" d="M20.552,0H2.936A2.939,2.939,0,0,0,0,2.936V20.552a2.939,2.939,0,0,0,2.936,2.936H20.552a2.939,2.939,0,0,0,2.936-2.936V2.936A2.939,2.939,0,0,0,20.552,0Z" fill="#1976d2"/>
    <path id="Path_1972" data-name="Path 1972" d="M203.036,103.357h-3.679v-2.943c0-.812.659-.736,1.471-.736H202.3V96h-2.943a4.414,4.414,0,0,0-4.414,4.414v2.943H192v3.679h2.943v8.093h4.414v-8.093h2.207Z" transform="translate(-183.21 -91.641)" fill="#fafafa"/>
  </g>
</svg>
