<svg xmlns="http://www.w3.org/2000/svg" width="13.501" height="10.5" viewBox="0 0 13.501 10.5">
  <g id="Group_27" data-name="Group 27" transform="translate(-39.75 -39.75)">
    <path id="setting-svgrepo-com_5_" data-name="setting-svgrepo-com (5)" d="M5.539,0a.348.348,0,0,1,.328.229l.353.978c.127.031.236.063.327.1s.23.091.39.165l.822-.435a.351.351,0,0,1,.416.066l.723.747a.341.341,0,0,1,.069.372l-.386.9c.064.117.116.218.154.3s.094.218.156.38l.9.385A.344.344,0,0,1,10,4.526L9.933,5.563a.345.345,0,0,1-.23.3l-.851.3a3.087,3.087,0,0,1-.077.3c-.032.1-.081.228-.149.387l.428.946a.342.342,0,0,1-.084.4l-.813.726a.351.351,0,0,1-.4.048L6.921,8.53a3.615,3.615,0,0,1-.4.184L6.15,8.85l-.325.9a.348.348,0,0,1-.32.228L4.555,10a.348.348,0,0,1-.334-.224L3.838,8.763c-.176-.061-.3-.109-.388-.145s-.182-.082-.309-.147l-.949.406a.351.351,0,0,1-.378-.066l-.7-.66a.342.342,0,0,1-.077-.392l.408-.89q-.092-.181-.151-.322c-.041-.1-.091-.234-.151-.406L.246,5.871A.345.345,0,0,1,0,5.529l.035-.96a.344.344,0,0,1,.2-.3l.939-.451c.043-.159.081-.284.115-.374s.086-.208.157-.356L1.035,2.23a.341.341,0,0,1,.075-.395l.7-.663A.351.351,0,0,1,2.187,1.1l.949.392q.158-.1.286-.172a3.243,3.243,0,0,1,.412-.173l.33-.921A.348.348,0,0,1,4.492,0ZM5.012,3.509A1.492,1.492,0,1,0,6.521,5,1.5,1.5,0,0,0,5.012,3.509Z" transform="translate(43 40)" fill="#0059a7" stroke="#fff" stroke-width="0.5"/>
    <path id="setting-svgrepo-com_5_2" data-name="setting-svgrepo-com (5)" d="M4.431,0a.278.278,0,0,1,.262.183l.282.783c.1.025.188.051.262.077s.184.073.312.132L6.207.826A.281.281,0,0,1,6.54.879l.578.6a.273.273,0,0,1,.055.3L6.865,2.5c.051.094.092.174.123.241s.075.174.125.3l.719.308A.275.275,0,0,1,8,3.62l-.053.83a.276.276,0,0,1-.184.242l-.681.242a2.469,2.469,0,0,1-.061.243c-.025.08-.065.182-.12.309l.342.757a.273.273,0,0,1-.068.317l-.65.581a.281.281,0,0,1-.318.038l-.67-.355a2.892,2.892,0,0,1-.324.147L4.92,7.08l-.26.72a.278.278,0,0,1-.256.183L3.644,8a.279.279,0,0,1-.267-.179L3.07,7.01c-.141-.049-.244-.087-.31-.116s-.145-.066-.247-.118L1.753,7.1a.281.281,0,0,1-.3-.053L.888,6.521a.273.273,0,0,1-.062-.314L1.153,5.5q-.074-.145-.121-.257C1,5.159.959,5.051.912,4.914L.2,4.7A.276.276,0,0,1,0,4.423l.028-.768a.275.275,0,0,1,.157-.238l.751-.361c.035-.128.065-.227.092-.3s.069-.166.126-.285L.828,1.784a.273.273,0,0,1,.06-.316L1.45.937a.281.281,0,0,1,.3-.055l.759.313q.126-.083.229-.137A2.594,2.594,0,0,1,3.067.92L3.331.183A.278.278,0,0,1,3.594,0ZM4.009,2.807A1.194,1.194,0,1,0,5.217,4,1.2,1.2,0,0,0,4.009,2.807Z" transform="translate(40 40)" fill="#0059a7" stroke="#fff" stroke-width="0.5"/>
  </g>
</svg>
