<svg id="Group_66" data-name="Group 66" xmlns="http://www.w3.org/2000/svg" width="23.488" height="23.488" viewBox="0 0 23.488 23.488">
  <g id="search" transform="translate(0 0)">
    <path id="Path_1973" data-name="Path 1973" d="M5.205,146.119l-.818,3.052-2.988.063a11.764,11.764,0,0,1-.086-10.966h0l2.66.488L5.14,141.4a7.009,7.009,0,0,0,.066,4.719Z" transform="translate(0 -131.925)" fill="#fbbb00"/>
    <path id="Path_1974" data-name="Path 1974" d="M272.909,208.176a11.74,11.74,0,0,1-4.186,11.352h0l-3.351-.171L264.9,216.4a7,7,0,0,0,3.012-3.574h-6.28v-4.646h11.281Z" transform="translate(-249.626 -198.626)" fill="#518ef8"/>
    <path id="Path_1975" data-name="Path 1975" d="M48.2,316.117h0a11.748,11.748,0,0,1-17.7-3.593l3.806-3.115a6.984,6.984,0,0,0,10.065,3.576Z" transform="translate(-29.109 -295.215)" fill="#28b446"/>
    <path id="Path_1976" data-name="Path 1976" d="M46.551,2.7l-3.8,3.115a6.984,6.984,0,0,0-10.3,3.657L28.625,6.343h0A11.746,11.746,0,0,1,46.551,2.7Z" transform="translate(-27.311)" fill="#f14336"/>
  </g>
</svg>
