<svg xmlns="http://www.w3.org/2000/svg" width="15.884" height="21.041" viewBox="0 0 15.884 21.041">
  <g id="location-svgrepo-com_6_" data-name="location-svgrepo-com (6)" transform="translate(-42.849)">
    <path id="Path_1978" data-name="Path 1978" d="M50.791,0a7.951,7.951,0,0,0-7.942,7.942c0,1.81,1.273,4.493,3.784,7.972,1.833,2.54,3.693,4.61,3.711,4.63l.447.5.447-.5c.019-.021,1.878-2.09,3.711-4.63,2.511-3.48,3.784-6.162,3.784-7.972A7.951,7.951,0,0,0,50.791,0Zm0,19.233c-2.23-2.569-6.738-8.367-6.738-11.291a6.738,6.738,0,1,1,13.477,0C57.529,10.864,53.021,16.663,50.791,19.233Z" fill="#fff"/>
    <circle id="Ellipse_56" data-name="Ellipse 56" cx="2.99" cy="2.99" r="2.99" transform="translate(47.801 4.952)" fill="#fff"/>
  </g>
</svg>
