<svg xmlns="http://www.w3.org/2000/svg" xmlns:xlink="http://www.w3.org/1999/xlink" width="63.079" height="94.919" viewBox="0 0 63.079 94.919">
  <defs>
    <filter id="Path_1982" x="0" y="0" width="63.079" height="85.361" filterUnits="userSpaceOnUse">
      <feOffset dy="3" input="SourceAlpha"/>
      <feGaussianBlur stdDeviation="3" result="blur"/>
      <feFlood flood-opacity="0.161"/>
      <feComposite operator="in" in2="blur"/>
      <feComposite in="SourceGraphic"/>
    </filter>
    <filter id="Path_1983" x="11.673" y="72.549" width="39.735" height="22.37" filterUnits="userSpaceOnUse">
      <feOffset dy="3" input="SourceAlpha"/>
      <feGaussianBlur stdDeviation="3" result="blur-2"/>
      <feFlood flood-opacity="0.161"/>
      <feComposite operator="in" in2="blur-2"/>
      <feComposite in="SourceGraphic"/>
    </filter>
  </defs>
  <g id="location-svgrepo-com_5_" data-name="location-svgrepo-com (5)" transform="translate(-45.643 6)">
    <g transform="matrix(1, 0, 0, 1, 45.64, -6)" filter="url(#Path_1982)">
      <path id="Path_1982-2" data-name="Path 1982" d="M77.183,0a22.565,22.565,0,0,0-22.54,22.54,22.333,22.333,0,0,0,2.182,9.684c.029.065.06.129.092.193L73.947,65.39a3.642,3.642,0,0,0,6.471,0L97.444,32.426c.029-.057.057-.114.083-.172a22.331,22.331,0,0,0,2.2-9.714A22.565,22.565,0,0,0,77.183,0Zm0,34.338a11.8,11.8,0,1,1,11.8-11.8A11.811,11.811,0,0,1,77.183,34.338Z" transform="translate(-45.64 6)" fill="#0059a7"/>
    </g>
    <g transform="matrix(1, 0, 0, 1, 45.64, -6)" filter="url(#Path_1983)">
      <path id="Path_1983-2" data-name="Path 1983" d="M114.258,249.018H96.893a2.185,2.185,0,0,0,0,4.37h17.365a2.185,2.185,0,0,0,0-4.37Z" transform="translate(-74.04 -170.47)" fill="#0059a7"/>
    </g>
  </g>
</svg>
