<svg xmlns="http://www.w3.org/2000/svg" width="17.745" height="22.027" viewBox="0 0 17.745 22.027">
  <g id="XMLID_791_" transform="translate(-27.75)">
    <path id="XMLID_792_" d="M84.84,9.683A4.841,4.841,0,1,0,80,4.841,4.847,4.847,0,0,0,84.84,9.683Zm0-7.368a2.527,2.527,0,1,1-2.527,2.527A2.53,2.53,0,0,1,84.84,2.315Z" transform="translate(-48.218 0)"/>
    <path id="XMLID_795_" d="M36.623,155.5a8.883,8.883,0,0,0-8.873,8.873,1.157,1.157,0,0,0,1.157,1.157H44.338a1.157,1.157,0,0,0,1.157-1.157A8.883,8.883,0,0,0,36.623,155.5Zm-6.456,7.715a6.559,6.559,0,0,1,12.912,0Z" transform="translate(0 -143.503)"/>
  </g>
</svg>
