<svg xmlns="http://www.w3.org/2000/svg" width="25" height="23.755" viewBox="0 0 25 23.755">
  <g id="shopping-cart-svgrepo-com_1_" data-name="shopping-cart-svgrepo-com (1)" transform="translate(0)">
    <g id="Group_24" data-name="Group 24" transform="translate(0)">
      <path id="Path_23" data-name="Path 23" d="M114.038,267.518a2.312,2.312,0,1,0,2.312,2.312A2.314,2.314,0,0,0,114.038,267.518Z" transform="translate(-103.471 -248.387)" fill="#0059a7"/>
      <path id="Path_24" data-name="Path 24" d="M237.628,267.518a2.312,2.312,0,1,0,2.312,2.312A2.315,2.315,0,0,0,237.628,267.518Z" transform="translate(-218.32 -248.387)" fill="#0059a7"/>
      <path id="Path_25" data-name="Path 25" d="M22.5,14.546l-.046-.009-2.537.014a3.044,3.044,0,0,0-.555,0l-3.75.017-3.71-.015a3.088,3.088,0,0,0-.556,0l-2.582-.012-.046.009A3.081,3.081,0,0,0,6.59,16.082l-1.8-7.493a.462.462,0,0,0-.453-.347H.464a.448.448,0,1,0,0,.9h3.5l3.349,13.91s0,0,0,.007A3.028,3.028,0,0,0,9.8,25.392c.055.014.111.028.168.04l.047.01.3,0,0-.448.062.448,5.245-.025,5.25.025,0-.448.057.448.3,0,.047-.01c.057-.011.112-.025.163-.04a3.027,3.027,0,0,0,2.492-2.357l1.022-4.976A3,3,0,0,0,22.5,14.546Z" transform="translate(0 -8.242)" fill="#0059a7"/>
    </g>
  </g>
</svg>
