<svg id="Group_15" data-name="Group 15" xmlns="http://www.w3.org/2000/svg" width="7" height="7" viewBox="0 0 7 7">
  <path id="Path_51" data-name="Path 51" d="M3.5,0A3.5,3.5,0,1,0,7,3.5,3.5,3.5,0,0,0,3.5,0Zm0,6.125A2.625,2.625,0,1,1,6.125,3.5,2.625,2.625,0,0,1,3.5,6.125Z" fill="#aaa"/>
  <path id="Path_52" data-name="Path 52" d="M13.754,11.312h-.661a.219.219,0,0,1-.219-.219v-.661A.433.433,0,0,0,12.442,10h-.009a.433.433,0,0,0-.433.433v1.321a.433.433,0,0,0,.433.433h1.321a.433.433,0,0,0,.433-.433v-.009a.433.433,0,0,0-.433-.433Z" transform="translate(-9.375 -7.812)" fill="#aaa"/>
</svg>
